<svg xmlns="http://www.w3.org/2000/svg" xmlns:xlink="http://www.w3.org/1999/xlink" width="64" height="64"><defs><path id="a" d="M63.833.04H.06V64h63.773V.04z"/></defs><g fill="none" fill-rule="evenodd"><mask id="b" fill="#fff"><use xlink:href="#a"/></mask><path fill="#76ABC4" d="M63.833 32c0 17.673-14.327 32-32 32-17.673 0-32-14.327-32-32 0-17.673 14.327-32 32-32 17.673 0 32 14.327 32 32" mask="url(#b)"/><path fill="#638DA0" d="M50 50H14a2 2 0 0 1-1.732-3c.345.598.992 1 1.732 1h36c.74 0 1.387-.402 1.732-1A2 2 0 0 1 50 50"/><path fill="#D5915B" d="M52 46a2 2 0 0 1-2 2H14a2 2 0 1 1 0-4h36a2 2 0 0 1 2 2"/><path fill="#B85756" d="M23 20h-4a3 3 0 0 0-3 3v21h10V23a3 3 0 0 0-3-3"/><path fill="#DEDECA" d="M45 16h-4a3 3 0 0 0-3 3v25h10V19a3 3 0 0 0-3-3"/><path fill="#D5915B" d="M16 27h10v-3H16zM16 40h10v-3H16z"/><path fill="#FFFFFE" d="M38 40h10v-3H38zM38 23h10v-3H38z"/><path fill="#B3B2A4" d="M38 44h2v-4h-2v4zm0-7h2V23h-2v14z"/><path fill="#CFCDC8" d="M38 40h2v-3h-2z"/><path fill="#638DA0" d="M38 19v-.004V19m0-.006v-.003.003m0-.004v-.003.003m0-.005v-.003.003m0-.007v-.001.001m0-.004v-.001.001"/><path fill="#B3B2A4" d="M40 20h-2V18.973a2.993 2.993 0 0 1 2-2.789V20"/><path fill="#CFCDC8" d="M38 23h2v-3h-2z"/><path fill="#638DA0" d="M26 23v-.004V23m0-.006v-.003.003m0-.005v-.002.002m0-.004v-.002.002m0-.007v-.001.001m0-.004v-.001.001"/><path fill="#974D4C" d="M24 44h2v-4h-2v4zm0-7h2V27h-2v10zm2-13h-2v-3.816a2.993 2.993 0 0 1 2 2.789V24z"/><path fill="#AE7A51" d="M24 27h2v-3h-2zM24 40h2v-3h-2z"/><path fill="#4C5665" d="M35 12h-6a3 3 0 0 0-3 3v29h12V15a3 3 0 0 0-3-3"/><path fill="#73BBA3" d="M26 19h12v-3H26zM26 40h12v-3H26z"/></g></svg>